<svg width="65" height="65" viewBox="0 0 65 65" fill="none" xmlns="http://www.w3.org/2000/svg">
<g clip-path="url(#clip0_5961_268)">
<path d="M40.9831 24.934C40.9818 24.9308 40.9762 24.9211 40.9728 24.9129C40.94 24.8337 40.8228 24.5524 40.7275 24.411C40.621 24.253 40.5003 24.1006 40.3498 23.9837C40.1247 23.8087 39.8551 23.6922 39.588 23.5924C39.3652 23.5091 39.1278 23.4713 38.8951 23.4216C38.8016 23.4016 38.7074 23.3655 38.612 23.3723C38.5988 23.3733 38.5864 23.3725 38.5732 23.3749C37.4596 20.5328 36.3339 17.6955 35.1641 14.8763C34.4434 13.1907 32.9345 11.8487 31.1213 11.4769C30.4983 11.2579 29.8468 11.2163 29.2048 11.3332C27.1479 11.3657 25.2987 12.4119 23.3984 13.0802C21.8799 13.6051 20.4969 14.5042 19.4291 15.6995C18.4929 16.9705 17.8424 18.5797 18.2028 20.174C18.5841 22.4555 19.6781 24.5328 20.437 26.7005C20.8586 27.7786 21.2771 28.8577 21.6965 29.9367C21.6895 29.9415 21.6841 29.9472 21.6775 29.9524C21.6025 30.0118 21.5574 30.102 21.5019 30.1799C21.3638 30.3737 21.2142 30.5618 21.1061 30.7737C20.9765 31.0277 20.8562 31.2957 20.8083 31.5767C20.7763 31.7646 20.7902 31.9585 20.8183 32.147C20.8434 32.3156 20.9469 32.6022 20.9762 32.6828C20.9828 32.7217 21.0042 32.7578 21.0333 32.7759C21.0624 32.7939 21.0844 32.7946 21.1308 32.7841C21.1771 32.7736 21.1935 32.7596 21.2924 32.6878C21.3913 32.6159 21.5563 32.4719 21.7022 32.3295C21.8481 32.1871 22.04 31.9703 22.1594 31.8291C22.2358 31.7389 22.2924 31.6677 22.3431 31.6006C22.8879 33.0046 23.4331 34.408 23.9774 35.8122C23.9728 35.8196 23.9679 35.8276 23.9637 35.8364C23.9422 35.882 23.9152 35.9467 23.9185 36.0488C23.9217 36.151 23.9324 36.152 24.025 36.4307C24.1175 36.7094 24.3915 37.4001 24.4827 37.5981C24.574 37.7961 24.5912 37.8309 24.6689 37.9155C24.7317 37.9837 24.7702 38.0379 24.8358 38.0267C25.6662 40.1656 26.5002 42.3046 27.3402 44.4398C27.3441 44.5287 27.3579 44.5438 27.4461 44.8093C27.5387 45.088 27.8133 45.7805 27.9046 45.9785C27.9798 46.1418 28.0059 46.1943 28.056 46.2549C28.7536 48.0177 29.4571 49.7786 30.1687 51.5358C30.6459 52.7725 31.8932 53.7011 33.2423 53.6543C36.2673 53.6982 39.1573 52.5533 41.8915 51.3664C43.6504 50.5237 45.4666 49.5488 46.6502 47.9584C47.5549 46.5939 46.9326 44.8836 46.3903 43.504C45.8984 42.1975 45.3983 40.8947 44.8956 39.5923C44.8842 39.5458 44.8683 39.4899 44.8391 39.3984C44.7727 39.1907 44.5077 38.4944 44.3879 38.2264C44.3092 38.0505 44.2859 37.9902 44.2597 37.9451C43.6127 36.2786 42.9612 34.6137 42.3136 32.9474C42.1186 32.4533 41.9249 31.9584 41.7309 31.464C41.7911 31.4286 41.7817 31.3608 41.7819 31.2661C41.7821 31.1513 41.7713 31.1139 41.7049 30.9062C41.6385 30.6986 41.3743 30.0041 41.2544 29.736C41.1345 29.468 41.1417 29.46 41.0751 29.3824C41.0085 29.3049 40.945 29.2754 40.8983 29.2563C40.8866 29.2515 40.875 29.2468 40.8643 29.2443C40.3171 27.8413 39.77 26.4386 39.2226 25.0356C39.3083 25.0517 39.4009 25.0664 39.5236 25.0821C39.707 25.1056 39.995 25.1359 40.1987 25.1425C40.4025 25.149 40.6214 25.1438 40.7429 25.1301C40.8644 25.1163 40.8859 25.1155 40.9272 25.092C40.9685 25.0685 40.9842 25.0531 40.9935 25.0201C40.9999 24.9976 40.9967 24.9716 40.9881 24.9468C40.9866 24.9426 40.9849 24.9382 40.9831 24.934ZM41.2881 30.3243C41.3088 30.3759 41.3317 30.4348 41.3514 30.4925C41.3198 30.4118 41.2888 30.3311 41.2573 30.2504C41.2683 30.2757 41.2791 30.3018 41.2881 30.3243ZM46.3382 45.2949C46.4882 45.6539 46.5927 46.0839 46.5653 46.3486C46.4983 46.9966 46.1975 47.4865 45.6448 47.8461C45.4644 47.9635 45.2171 48.1723 45.0936 48.3097C44.7263 48.7183 44.1481 49.1877 43.9422 49.2453L43.7513 49.2985L43.8505 49.0525C43.9049 48.9174 44.106 48.6442 44.2983 48.4469C45.4115 47.3048 45.8796 46.1754 45.8329 44.7494C45.8288 44.6253 45.8334 44.6245 45.9491 44.698C46.0779 44.7798 46.2215 45.0156 46.3382 45.2949ZM38.6424 25.8289C38.6888 25.9459 38.7404 26.0802 38.7981 26.2294C39.1823 27.2239 39.8036 28.8877 40.4414 30.6366L40.8969 31.8844L40.327 32.6611C40.0143 33.0877 39.7216 33.4597 39.6761 33.4882C39.5945 33.5393 39.5929 33.5347 39.4492 33.1468C39.3691 32.9306 39.1674 32.3641 39.0025 31.8892C38.5365 30.5477 37.9559 28.4254 37.6775 27.0503L37.5647 26.5012L37.7589 26.2351C37.865 26.0888 38.0466 25.823 38.1641 25.6439C38.2815 25.4648 38.3921 25.3052 38.4095 25.2887C38.4182 25.2804 38.5035 25.4778 38.6424 25.8289ZM34.0882 14.232C34.1249 14.3266 34.1672 14.4338 34.2141 14.5561C34.7196 15.8731 34.7099 16.1472 34.1748 15.7762C33.8657 15.5619 32.0026 14.1327 31.2677 13.5469C30.6428 13.0488 30.3285 12.8791 29.7986 12.7536C29.5853 12.7031 29.3418 12.5951 29.2544 12.5125C29.092 12.359 28.9518 12.0757 28.9923 11.9836C29.0049 11.9551 29.1627 11.8734 29.3434 11.8032C29.6943 11.6668 29.998 11.6715 30.7541 11.8208C31.3763 11.9436 32.315 12.2881 32.7313 12.5465C32.9443 12.6787 33.2807 12.9627 33.4777 13.1785C33.7888 13.5193 33.8309 13.5697 34.0882 14.232ZM41.7063 34.0592C41.765 34.2092 41.8511 34.4476 41.9839 34.8168C43.0989 37.915 43.8065 39.937 43.7899 39.9716C43.7622 40.0297 43.1024 40.4169 42.8906 40.4992C42.5606 40.6274 42.58 40.6495 42.0779 39.5347C41.742 38.7886 40.5306 35.9374 40.2589 35.2523C40.2325 35.1857 40.3366 35.0607 40.8587 34.531C41.2059 34.1789 41.5169 33.8651 41.55 33.835C41.5859 33.8025 41.6085 33.8093 41.7063 34.0592ZM44.2488 41.9076C44.2767 41.973 44.3038 42.0569 44.3362 42.1649C44.4631 42.5881 44.7034 43.6159 44.6911 43.6823C44.6647 43.8249 44.2247 43.3146 43.7964 42.647C43.4777 42.1501 43.4469 42.0899 43.4488 41.9355C43.4505 41.7922 43.5908 41.7094 43.8545 41.6962C44.0785 41.685 44.1651 41.7114 44.2488 41.9076ZM35.465 20.3101C35.5331 20.4853 36.3482 25.7305 36.4511 26.6552C36.5205 27.2786 36.5731 28.4532 36.5682 29.2645C36.5571 31.1105 36.6596 32.0127 36.9733 32.8202C37.2121 33.4348 37.2096 33.4766 36.8666 34.1901L36.5129 34.9247L33.7603 35.9943L31.0058 37.0646L30.2685 36.7685L29.5336 36.4736L29.0948 35.5168C28.7495 34.7619 28.4827 34.3698 27.8296 33.6574C26.2022 31.8821 25.2757 30.6744 23.7477 28.3455C22.8951 27.0459 22.1281 25.8804 22.0437 25.7556C21.92 25.5727 21.9555 25.4558 22.2281 25.1517C22.6472 24.684 24.238 23.3957 25 22.9075C26.6804 21.8308 29.9343 20.5997 31.6875 20.376C33.3225 20.1674 35.3956 20.1313 35.465 20.3101ZM44.9788 46.4936C45.1141 46.7967 44.8835 46.994 44.3831 47.5758C43.0221 49.158 41.6513 50.0096 38.8965 50.9817C36.7352 51.7443 35.844 51.8815 34.0521 51.7262C32.4907 51.5909 32.4751 51.5774 32.5588 50.4499C32.5967 49.9388 32.6236 49.1876 32.6188 48.7817C32.614 48.3759 32.6301 48.0356 32.6542 48.0262C32.6783 48.0168 33.1133 48.05 33.6212 48.0989C35.2154 48.2523 36.3608 48.0605 38.2268 47.3277C40.0947 46.5941 40.947 46.0355 42.028 44.8365C42.3856 44.4399 42.6977 44.1266 42.7211 44.1397C42.7446 44.1529 43.2997 44.704 43.9552 45.3638C44.5471 45.9594 44.8737 46.2578 44.9788 46.4936ZM21.1884 15.1688C21.2096 15.2118 21.2233 15.2698 21.2335 15.3441C21.2833 15.7081 21.2638 15.7717 20.9867 16.2027C20.6579 16.7142 20.58 16.9631 20.4229 17.9766C20.19 19.4785 19.7975 21.5292 19.7244 21.6257C19.5679 21.8327 19.4747 21.695 19.0215 20.5662C18.6472 19.6342 18.5908 19.4517 18.5842 19.1604C18.5622 18.1862 18.8762 17.2821 19.5892 16.268C20.114 15.5216 20.3295 15.3094 20.7148 15.158C20.9972 15.047 21.1249 15.0401 21.1884 15.1688ZM35.3768 52.5525L35.2157 52.634C35.0293 52.7291 34.2015 52.7797 33.76 52.7218C33.5952 52.7002 33.2675 52.7139 33.0325 52.7531C32.0321 52.9197 31.1803 52.4279 30.8322 51.4854C30.7627 51.2972 30.6936 51.0601 30.6797 50.958C30.6657 50.8558 30.6631 50.7127 30.6734 50.6398C30.6908 50.5158 30.6998 50.5169 30.8234 50.6486C31.3995 51.2615 31.7983 51.5669 32.3263 51.8038C32.9565 52.0865 33.488 52.2119 34.3943 52.2889C34.7386 52.3181 35.1009 52.3878 35.1991 52.4455L35.3768 52.5525ZM28.4465 39.7479L28.7458 40.5452C29.1093 41.5129 29.7791 43.4334 30.1199 44.4807C30.3231 45.1048 30.3618 45.2624 30.3256 45.3228C30.2641 45.4253 29.9135 45.5532 29.4585 45.6366L29.0766 45.7054L28.98 45.5376C28.8867 45.3749 28.0234 43.3347 27.0035 40.866C26.6501 40.0106 26.5161 39.6516 26.5501 39.6508C26.5767 39.6502 27.0142 39.6716 27.5221 39.6985L28.4465 39.7479ZM27.519 37.4094C27.6858 37.8365 27.7764 38.1203 27.7363 38.1359C27.6844 38.1561 25.9357 37.8314 25.7987 37.7761C25.7312 37.7489 25.3105 36.7451 23.5282 32.3533L23.0608 31.2044L23.3477 31.2794C23.5055 31.3213 23.8426 31.3989 24.0957 31.4518C24.3763 31.5106 24.5761 31.5783 24.6068 31.6241C24.8814 32.0337 25.7757 33.6587 26.2932 34.6861C26.7494 35.5919 27.241 36.6977 27.519 37.4094ZM30.7373 47.1157C30.799 47.2812 30.8497 47.5306 30.9013 47.8775C31.0307 48.7466 31.009 49.2193 30.8498 48.9746C30.6964 48.7387 30.3107 48.02 30.1422 47.6549L29.9622 47.2618L30.0621 47.1308C30.1173 47.0588 30.2276 46.9614 30.3069 46.9141C30.5054 46.7957 30.6345 46.8398 30.7373 47.1157Z" fill="#00B378"/>
</g>
<defs>
<clipPath id="clip0_5961_268">
<rect width="50" height="50" fill="white" transform="translate(46.6055) rotate(68.7658)"/>
</clipPath>
</defs>
</svg>
